<?xml version="1.0" encoding="UTF-8" standalone="no"?>
<!-- Created with Inkscape (http://www.inkscape.org/) -->

<svg
   width="2048"
   height="1024"
   viewBox="0 0 541.86665 270.93333"
   version="1.1"
   id="svg1"
   inkscape:version="1.3.2 (091e20e, 2023-11-25)"
   sodipodi:docname="banner-horizontal.svg"
   inkscape:export-filename="banner-horizontal.png"
   inkscape:export-xdpi="96"
   inkscape:export-ydpi="96"
   xmlns:inkscape="http://www.inkscape.org/namespaces/inkscape"
   xmlns:sodipodi="http://sodipodi.sourceforge.net/DTD/sodipodi-0.dtd"
   xmlns="http://www.w3.org/2000/svg"
   xmlns:svg="http://www.w3.org/2000/svg">
  <sodipodi:namedview
     id="namedview1"
     pagecolor="#ffffff"
     bordercolor="#000000"
     borderopacity="0.25"
     inkscape:showpageshadow="2"
     inkscape:pageopacity="0.0"
     inkscape:pagecheckerboard="0"
     inkscape:deskcolor="#d1d1d1"
     inkscape:document-units="mm"
     showguides="true"
     inkscape:zoom="0.52727542"
     inkscape:cx="1011.8052"
     inkscape:cy="476.03205"
     inkscape:window-width="1920"
     inkscape:window-height="1027"
     inkscape:window-x="0"
     inkscape:window-y="25"
     inkscape:window-maximized="1"
     inkscape:current-layer="layer1">
    <sodipodi:guide
       position="0,270.93333"
       orientation="0,2048"
       id="guide1"
       inkscape:locked="false" />
    <sodipodi:guide
       position="541.86666,270.93333"
       orientation="1024,0"
       id="guide2"
       inkscape:locked="false" />
    <sodipodi:guide
       position="541.86666,0"
       orientation="0,-2048"
       id="guide3"
       inkscape:locked="false" />
    <sodipodi:guide
       position="0,0"
       orientation="-1024,0"
       id="guide4"
       inkscape:locked="false" />
    <sodipodi:guide
       position="162.45165,195.83454"
       orientation="0,-1"
       id="guide7"
       inkscape:locked="false" />
    <sodipodi:guide
       position="163.01572,61.309323"
       orientation="0,-1"
       id="guide8"
       inkscape:locked="false" />
    <sodipodi:guide
       position="212.40932,56.504849"
       orientation="0,-1"
       id="guide15"
       inkscape:locked="false" />
  </sodipodi:namedview>
  <defs
     id="defs1" />
  <g
     inkscape:label="Camada 1"
     inkscape:groupmode="layer"
     id="layer1">
    <rect
       style="fill:#6f917c;stroke-width:3.87861"
       id="rect4"
       width="541.86664"
       height="270.93332"
       x="0"
       y="-2.5000002e-06" />
    <g
       id="g5"
       transform="matrix(2.7093333,0,0,2.7093333,29.981698,11.699211)">
      <path
         d="m 31.924146,32.266958 c 0,-3.912351 3.242356,-7.093216 7.230341,-7.093216 h 32.536537 c 3.987985,0 7.230341,3.180865 7.230341,7.093216 v 35.466084 c 0,3.912351 -3.242356,7.093216 -7.230341,7.093216 H 30.116562 c -4.993455,0 -9.037927,-3.967768 -9.037927,-8.866521 v -30.14617 c 0,-1.961717 1.615528,-3.546609 3.61517,-3.546609 1.999641,0 3.615171,1.584892 3.615171,3.546609 v 30.14617 c 0,0.975318 0.813414,1.773305 1.807586,1.773305 0.99417,0 1.807584,-0.797987 1.807584,-1.773305 z m 7.230341,2.659956 v 8.866521 c 0,1.474059 1.208823,2.659956 2.711378,2.659956 h 12.653098 c 1.502556,0 2.711378,-1.185897 2.711378,-2.659956 v -8.866521 c 0,-1.474057 -1.208822,-2.659956 -2.711378,-2.659956 H 41.865865 c -1.502555,0 -2.711378,1.185899 -2.711378,2.659956 z m 23.49861,-0.886651 c 0,0.975317 0.813413,1.773304 1.807585,1.773304 h 5.422756 c 0.994172,0 1.807586,-0.797987 1.807586,-1.773304 0,-0.975318 -0.813414,-1.773305 -1.807586,-1.773305 h -5.422756 c -0.994172,0 -1.807585,0.797987 -1.807585,1.773305 z m 0,10.639823 c 0,0.975318 0.813413,1.773305 1.807585,1.773305 h 5.422756 c 0.994172,0 1.807586,-0.797987 1.807586,-1.773305 0,-0.975317 -0.813414,-1.773302 -1.807586,-1.773302 h -5.422756 c -0.994172,0 -1.807585,0.797985 -1.807585,1.773302 z m -23.49861,10.639826 c 0,0.975317 0.813414,1.773304 1.807586,1.773304 h 28.921365 c 0.994172,0 1.807586,-0.797987 1.807586,-1.773304 0,-0.975318 -0.813414,-1.773305 -1.807586,-1.773305 H 40.962073 c -0.994172,0 -1.807586,0.797987 -1.807586,1.773305 z m 0,10.639825 c 0,0.975318 0.813414,1.773305 1.807586,1.773305 h 28.921365 c 0.994172,0 1.807586,-0.797987 1.807586,-1.773305 0,-0.975317 -0.813414,-1.773304 -1.807586,-1.773304 H 40.962073 c -0.994172,0 -1.807586,0.797987 -1.807586,1.773304 z"
         id="path5"
         style="fill:#1c241f;fill-opacity:0.137546;stroke-width:0.111898" />
      <path
         d="m 33.731732,30.493653 c 0,-3.912351 3.242356,-7.093216 7.230341,-7.093216 H 73.49861 c 3.987985,0 7.230341,3.180865 7.230341,7.093216 v 35.466084 c 0,3.912351 -3.242356,7.093216 -7.230341,7.093216 H 31.924148 c -4.993455,0 -9.037927,-3.967768 -9.037927,-8.866521 v -30.14617 c 0,-1.961717 1.615528,-3.546609 3.61517,-3.546609 1.999641,0 3.615171,1.584892 3.615171,3.546609 v 30.14617 c 0,0.975318 0.813414,1.773305 1.807586,1.773305 0.99417,0 1.807584,-0.797987 1.807584,-1.773305 z m 7.230341,2.659956 v 8.866521 c 0,1.474059 1.208823,2.659956 2.711378,2.659956 h 12.653098 c 1.502556,0 2.711378,-1.185897 2.711378,-2.659956 v -8.866521 c 0,-1.474057 -1.208822,-2.659956 -2.711378,-2.659956 H 43.673451 c -1.502555,0 -2.711378,1.185899 -2.711378,2.659956 z m 23.49861,-0.886651 c 0,0.975317 0.813413,1.773304 1.807585,1.773304 h 5.422756 c 0.994172,0 1.807586,-0.797987 1.807586,-1.773304 0,-0.975318 -0.813414,-1.773305 -1.807586,-1.773305 h -5.422756 c -0.994172,0 -1.807585,0.797987 -1.807585,1.773305 z m 0,10.639823 c 0,0.975318 0.813413,1.773305 1.807585,1.773305 h 5.422756 c 0.994172,0 1.807586,-0.797987 1.807586,-1.773305 0,-0.975317 -0.813414,-1.773302 -1.807586,-1.773302 h -5.422756 c -0.994172,0 -1.807585,0.797985 -1.807585,1.773302 z m -23.49861,10.639826 c 0,0.975317 0.813414,1.773304 1.807586,1.773304 h 28.921365 c 0.994172,0 1.807586,-0.797987 1.807586,-1.773304 0,-0.975318 -0.813414,-1.773305 -1.807586,-1.773305 H 42.769659 c -0.994172,0 -1.807586,0.797987 -1.807586,1.773305 z m 0,10.639825 c 0,0.975318 0.813414,1.773305 1.807586,1.773305 h 28.921365 c 0.994172,0 1.807586,-0.797987 1.807586,-1.773305 0,-0.975317 -0.813414,-1.773304 -1.807586,-1.773304 H 42.769659 c -0.994172,0 -1.807586,0.797987 -1.807586,1.773304 z"
         id="path1"
         style="fill:#ffffff;stroke-width:0.111898" />
    </g>
    <g
       id="g4"
       transform="matrix(2.7093333,0,0,2.7093333,21.290588,13.594661)">
      <g
         id="g6">
        <circle
           style="fill:#1c241f;fill-opacity:0.134663;stroke-width:1.13333"
           id="circle5"
           cx="74.710159"
           cy="27.676353"
           r="10.878566" />
        <circle
           style="fill:#37483e;stroke-width:1.13333"
           id="path4"
           cx="75.670036"
           cy="26.71648"
           r="10.878566" />
      </g>
      <path
         d="m 74.081126,24.492008 c 0,-0.877872 0.711034,-1.588909 1.588909,-1.588909 0.633575,0 1.179761,0.369422 1.435977,0.907665 0.15094,0.317781 0.530292,0.452838 0.846087,0.301893 0.3158,-0.150947 0.452845,-0.530299 0.301899,-0.846095 -0.458804,-0.965262 -1.441935,-1.634589 -2.583963,-1.634589 -1.578979,0 -2.860037,1.281058 -2.860037,2.860035 v 0.953345 h -0.317787 c -0.701105,0 -1.271123,0.570021 -1.271123,1.271127 v 3.813381 c 0,0.701105 0.570018,1.271126 1.271123,1.271126 h 6.355642 c 0.701105,0 1.271123,-0.570021 1.271123,-1.271126 V 26.71648 c 0,-0.701106 -0.570018,-1.271127 -1.271123,-1.271127 h -4.766727 z"
         id="path1-2"
         style="fill:#ffffff;stroke-width:0.0198613" />
    </g>
    <g
       id="text4"
       style="font-weight:bold;font-size:51.4711px;line-height:0.9;-inkscape-font-specification:'sans-serif Bold';fill:#1c241f;stroke-width:0.26808;fill-opacity:0.13411079"
       transform="matrix(1.0027587,0,0,0.99724888,28.948255,14.101458)"
       aria-label="OPEN&#10;NEWS&#10;BRASIL">
      <path
         style="font-family:'Fira Code';-inkscape-font-specification:'Fira Code Bold';fill:#1c241f;fill-opacity:0.13411079"
         d="m 263.86672,85.172954 q 0,5.806996 -1.66291,10.135847 -1.66292,4.302456 -4.93595,6.704439 -3.24664,2.37559 -8.05061,2.37559 -4.77757,0 -8.05061,-2.3228 -3.27303,-2.349191 -4.93594,-6.651647 -1.66292,-4.302456 -1.66292,-10.241429 0,-5.806996 1.66292,-10.109452 1.66291,-4.302456 4.93594,-6.678045 3.27304,-2.401985 8.05061,-2.401985 4.80397,0 8.05061,2.322798 3.27303,2.322799 4.93595,6.625255 1.66291,4.302456 1.66291,10.241429 z m -8.86887,0 q 0,-6.757232 -1.34617,-9.819102 -1.34616,-3.061871 -4.43443,-3.061871 -3.08826,0 -4.43443,3.088266 -1.34617,3.061871 -1.34617,9.792707 0,6.757232 1.37256,9.819102 1.37257,3.061871 4.40804,3.061871 3.16745,0 4.46083,-3.088266 1.31977,-3.114662 1.31977,-9.792707 z m 40.49062,-6.3613 q 0,4.249665 -1.82128,7.021186 -1.82129,2.771521 -5.09432,4.144083 -3.27304,1.346167 -7.60189,1.346167 h -3.95931 v 12.1683 h -8.65771 V 66.907312 h 11.50841 q 7.44352,0 11.53481,2.956289 4.09129,2.956289 4.09129,8.948053 z m -8.92165,0.02639 q 0,-5.754205 -6.59886,-5.754205 h -2.95629 v 11.957133 h 3.40501 q 2.9035,0 4.51362,-1.478145 1.63652,-1.504539 1.63652,-4.724783 z m 23.72951,-5.754205 v 8.78968 h 12.66981 v 6.070951 h -12.66981 v 9.343984 h 15.28296 v 6.202936 H 301.63863 V 66.907312 h 23.91427 l -0.87105,6.176532 z m 36.53131,30.407551 -9.63433,-29.43092 q 0.23755,1.557331 0.5543,4.012107 0.31674,2.42838 0.52791,5.411064 0.23756,2.982684 0.23756,6.202927 v 13.804822 h -7.36433 V 66.907312 h 10.79573 l 9.34399,29.272539 q -0.42233,-2.507567 -0.87105,-6.414091 -0.44872,-3.906525 -0.44872,-8.842471 V 66.907312 h 7.36432 v 36.584078 z"
         id="path10" />
      <path
         style="font-family:'Fira Code';-inkscape-font-specification:'Fira Code Bold';fill:#1c241f;fill-opacity:0.13411079"
         d="m 251.804,151.73681 -9.63433,-29.43091 q 0.23756,1.55733 0.5543,4.0121 0.31675,2.42838 0.52791,5.41107 0.23756,2.98268 0.23756,6.20292 v 13.80482 h -7.36433 v -36.58408 h 10.79574 l 9.34398,29.27254 q -0.42232,-2.50756 -0.87105,-6.41409 -0.44872,-3.90652 -0.44872,-8.84247 v -14.01598 h 7.36433 v 36.58408 z m 26.81779,-30.40754 v 8.78968 h 12.66981 v 6.07095 h -12.66981 v 9.34398 h 15.28296 v 6.20293 h -23.94066 v -36.58408 h 23.91426 l -0.87105,6.17654 z m 49.94019,-6.17654 -4.27606,36.58408 h -9.00085 l -2.66594,-26.15788 -2.92989,26.15788 h -9.15922 l -3.95931,-36.58408 h 8.1034 l 1.24058,29.19336 3.03548,-24.97009 h 7.44351 l 2.82431,24.97009 1.82129,-29.19336 z m 29.82686,25.89393 q 0,3.40501 -1.79489,6.01816 -1.76849,2.61314 -5.09432,4.09129 -3.32582,1.47814 -7.99782,1.47814 -5.1735,0 -8.68409,-1.50454 -3.4842,-1.53093 -5.7806,-3.77454 l 4.38164,-4.85677 q 2.03245,1.7685 4.48722,2.74513 2.45478,0.95024 5.38467,0.95024 2.71873,0 4.40804,-1.1614 1.68931,-1.1878 1.68931,-3.32583 0,-2.00605 -1.42536,-3.14105 -1.39895,-1.13501 -5.22629,-2.29641 -6.41409,-1.95326 -9.13282,-4.5928 -2.69234,-2.66594 -2.69234,-6.83642 0,-3.35222 1.84768,-5.72781 1.87408,-2.37559 5.01514,-3.61618 3.14105,-1.26698 6.9156,-1.26698 4.24966,0 7.4963,1.24059 3.24664,1.21419 5.62223,3.4842 l -4.09129,4.69838 q -1.84768,-1.55733 -3.98571,-2.2964 -2.13803,-0.76547 -4.35525,-0.76547 -2.48117,0 -3.98571,0.92384 -1.50454,0.89745 -1.50454,2.66594 0,1.1614 0.65989,1.95326 0.65988,0.79187 2.2964,1.50454 1.63652,0.68629 4.54001,1.61013 3.45781,1.05581 5.91258,2.53396 2.48117,1.45175 3.77455,3.66896 1.31977,2.21722 1.31977,5.59584 z"
         id="path11" />
      <path
         style="font-family:'Fira Code';-inkscape-font-specification:'Fira Code Bold';fill:#1c241f;fill-opacity:0.13411079"
         d="m 263.52358,189.26568 q 0,3.16745 -1.21419,5.25269 -1.21419,2.08524 -3.32583,3.27304 -2.11163,1.18779 -4.83036,1.68931 -2.69234,0.50151 -5.67502,0.50151 h -12.1419 v -36.58408 h 11.58759 q 3.77455,0 6.942,0.84466 3.19385,0.84465 5.12072,2.9035 1.95326,2.03245 1.95326,5.59583 0,3.27303 -2.00605,5.2263 -2.00606,1.95326 -4.69839,2.63954 1.95326,0.31674 3.85373,1.24058 1.92687,0.89745 3.16746,2.69234 1.26698,1.79489 1.26698,4.72478 z m -10.29422,-15.65249 q 0,-2.16443 -1.37257,-3.11466 -1.34616,-0.97663 -4.19687,-0.97663 h -2.66594 v 8.47293 h 2.92989 q 2.79792,0 4.03851,-1.02942 1.26698,-1.02942 1.26698,-3.35222 z m 1.37256,15.30935 q 0,-2.9035 -1.66291,-4.01211 -1.63652,-1.1086 -4.38164,-1.1086 h -3.56339 v 9.87189 h 3.19385 q 1.68931,0 3.14106,-0.34314 1.47814,-0.36954 2.37559,-1.39896 0.89744,-1.02942 0.89744,-3.00908 z m 40.09469,-14.41191 q 0,3.93292 -2.13803,6.3877 -2.13803,2.42838 -5.1999,3.64257 l 9.58154,15.44133 h -9.79271 l -7.91863,-13.98958 h -2.45477 v 13.98958 h -8.6577 v -36.58408 h 11.50841 q 7.4699,0 11.27085,2.71873 3.80094,2.71873 3.80094,8.39375 z m -8.92166,0 q 0,-2.63954 -1.55733,-3.82734 -1.53093,-1.21419 -4.56641,-1.21419 h -2.8771 v 10.58457 h 3.22024 q 2.82431,0 4.30246,-1.31977 1.47814,-1.31977 1.47814,-4.22327 z m 32.07048,17.57936 h -10.71655 l -1.92686,7.89224 h -9.05364 l 11.19167,-36.58408 h 10.50538 l 11.19166,36.58408 h -9.26479 z m -9.34399,-6.28211 h 7.91864 l -3.95932,-16.1804 z m 49.8874,3.4842 q 0,3.40501 -1.79489,6.01816 -1.76849,2.61314 -5.09432,4.09129 -3.32582,1.47814 -7.99782,1.47814 -5.1735,0 -8.68409,-1.50454 -3.4842,-1.53093 -5.7806,-3.77454 l 4.38164,-4.85676 q 2.03245,1.76849 4.48722,2.74512 2.45478,0.95024 5.38467,0.95024 2.71873,0 4.40804,-1.1614 1.68931,-1.1878 1.68931,-3.32583 0,-2.00605 -1.42536,-3.14105 -1.39895,-1.13501 -5.22629,-2.29641 -6.41409,-1.95326 -9.13282,-4.5928 -2.69234,-2.66594 -2.69234,-6.83642 0,-3.35222 1.84768,-5.72781 1.87408,-2.37559 5.01514,-3.61617 3.14105,-1.26699 6.9156,-1.26699 4.24966,0 7.4963,1.24059 3.24664,1.21419 5.62223,3.4842 l -4.09129,4.69838 q -1.84768,-1.55733 -3.98571,-2.2964 -2.13803,-0.76547 -4.35525,-0.76547 -2.48117,0 -3.98571,0.92384 -1.50454,0.89745 -1.50454,2.66594 0,1.1614 0.65989,1.95327 0.65988,0.79186 2.2964,1.50454 1.63652,0.68628 4.54001,1.61012 3.45781,1.05581 5.91258,2.53396 2.48117,1.45175 3.77455,3.66896 1.31977,2.21722 1.31977,5.59584 z m 29.40454,-25.89393 v 6.33491 h -7.5491 v 23.88787 h 7.5491 v 6.3613 h -23.75589 v -6.3613 h 7.54909 v -23.88787 h -7.54909 v -6.33491 z m 8.86889,36.58408 v -36.58408 h 8.6577 v 29.74766 h 15.86366 l -0.89745,6.83642 z"
         id="path12" />
    </g>
    <g
       id="text10"
       style="font-weight:bold;font-size:51.4711px;line-height:0.9;-inkscape-font-specification:'sans-serif Bold';fill:#ffffff;stroke-width:0.26808"
       transform="matrix(1.0027587,0,0,0.99724888,32.256792,9.2968456)"
       aria-label="OPEN&#10;NEWS&#10;BRASIL">
      <path
         style="font-family:'Fira Code';-inkscape-font-specification:'Fira Code Bold';fill:#d7f4e3"
         d="m 263.86672,85.172954 q 0,5.806996 -1.66291,10.135847 -1.66292,4.302456 -4.93595,6.704439 -3.24664,2.37559 -8.05061,2.37559 -4.77757,0 -8.05061,-2.3228 -3.27303,-2.349191 -4.93594,-6.651647 -1.66292,-4.302456 -1.66292,-10.241429 0,-5.806996 1.66292,-10.109452 1.66291,-4.302456 4.93594,-6.678045 3.27304,-2.401985 8.05061,-2.401985 4.80397,0 8.05061,2.322798 3.27303,2.322799 4.93595,6.625255 1.66291,4.302456 1.66291,10.241429 z m -8.86887,0 q 0,-6.757232 -1.34617,-9.819102 -1.34616,-3.061871 -4.43443,-3.061871 -3.08826,0 -4.43443,3.088266 -1.34617,3.061871 -1.34617,9.792707 0,6.757232 1.37256,9.819102 1.37257,3.061871 4.40804,3.061871 3.16745,0 4.46083,-3.088266 1.31977,-3.114662 1.31977,-9.792707 z m 40.49062,-6.3613 q 0,4.249665 -1.82128,7.021186 -1.82129,2.771521 -5.09432,4.144083 -3.27304,1.346167 -7.60189,1.346167 h -3.95931 v 12.1683 h -8.65771 V 66.907312 h 11.50841 q 7.44352,0 11.53481,2.956289 4.09129,2.956289 4.09129,8.948053 z m -8.92165,0.02639 q 0,-5.754205 -6.59886,-5.754205 h -2.95629 v 11.957133 h 3.40501 q 2.9035,0 4.51362,-1.478145 1.63652,-1.504539 1.63652,-4.724783 z m 23.72951,-5.754205 v 8.78968 h 12.66981 v 6.070951 h -12.66981 v 9.343984 h 15.28296 v 6.202936 H 301.63863 V 66.907312 h 23.91427 l -0.87105,6.176532 z m 36.53131,30.407551 -9.63433,-29.43092 q 0.23755,1.557331 0.5543,4.012107 0.31674,2.42838 0.52791,5.411064 0.23756,2.982684 0.23756,6.202927 v 13.804822 h -7.36433 V 66.907312 h 10.79573 l 9.34399,29.272539 q -0.42233,-2.507567 -0.87105,-6.414091 -0.44872,-3.906525 -0.44872,-8.842471 V 66.907312 h 7.36432 v 36.584078 z"
         id="path13" />
      <path
         style="font-family:'Fira Code';-inkscape-font-specification:'Fira Code Bold';fill:#d7f4e3"
         d="m 251.804,151.73681 -9.63433,-29.43091 q 0.23756,1.55733 0.5543,4.0121 0.31675,2.42838 0.52791,5.41107 0.23756,2.98268 0.23756,6.20292 v 13.80482 h -7.36433 v -36.58408 h 10.79574 l 9.34398,29.27254 q -0.42232,-2.50756 -0.87105,-6.41409 -0.44872,-3.90652 -0.44872,-8.84247 v -14.01598 h 7.36433 v 36.58408 z m 26.81779,-30.40754 v 8.78968 h 12.66981 v 6.07095 h -12.66981 v 9.34398 h 15.28296 v 6.20293 h -23.94066 v -36.58408 h 23.91426 l -0.87105,6.17654 z m 49.94019,-6.17654 -4.27606,36.58408 h -9.00085 l -2.66594,-26.15788 -2.92989,26.15788 h -9.15922 l -3.95931,-36.58408 h 8.1034 l 1.24058,29.19336 3.03548,-24.97009 h 7.44351 l 2.82431,24.97009 1.82129,-29.19336 z m 29.82686,25.89393 q 0,3.40501 -1.79489,6.01816 -1.76849,2.61314 -5.09432,4.09129 -3.32582,1.47814 -7.99782,1.47814 -5.1735,0 -8.68409,-1.50454 -3.4842,-1.53093 -5.7806,-3.77454 l 4.38164,-4.85677 q 2.03245,1.7685 4.48722,2.74513 2.45478,0.95024 5.38467,0.95024 2.71873,0 4.40804,-1.1614 1.68931,-1.1878 1.68931,-3.32583 0,-2.00605 -1.42536,-3.14105 -1.39895,-1.13501 -5.22629,-2.29641 -6.41409,-1.95326 -9.13282,-4.5928 -2.69234,-2.66594 -2.69234,-6.83642 0,-3.35222 1.84768,-5.72781 1.87408,-2.37559 5.01514,-3.61618 3.14105,-1.26698 6.9156,-1.26698 4.24966,0 7.4963,1.24059 3.24664,1.21419 5.62223,3.4842 l -4.09129,4.69838 q -1.84768,-1.55733 -3.98571,-2.2964 -2.13803,-0.76547 -4.35525,-0.76547 -2.48117,0 -3.98571,0.92384 -1.50454,0.89745 -1.50454,2.66594 0,1.1614 0.65989,1.95326 0.65988,0.79187 2.2964,1.50454 1.63652,0.68629 4.54001,1.61013 3.45781,1.05581 5.91258,2.53396 2.48117,1.45175 3.77455,3.66896 1.31977,2.21722 1.31977,5.59584 z"
         id="path14" />
      <path
         style="font-family:'Fira Code';-inkscape-font-specification:'Fira Code Bold'"
         d="m 263.52358,189.26568 q 0,3.16745 -1.21419,5.25269 -1.21419,2.08524 -3.32583,3.27304 -2.11163,1.18779 -4.83036,1.68931 -2.69234,0.50151 -5.67502,0.50151 h -12.1419 v -36.58408 h 11.58759 q 3.77455,0 6.942,0.84466 3.19385,0.84465 5.12072,2.9035 1.95326,2.03245 1.95326,5.59583 0,3.27303 -2.00605,5.2263 -2.00606,1.95326 -4.69839,2.63954 1.95326,0.31674 3.85373,1.24058 1.92687,0.89745 3.16746,2.69234 1.26698,1.79489 1.26698,4.72478 z m -10.29422,-15.65249 q 0,-2.16443 -1.37257,-3.11466 -1.34616,-0.97663 -4.19687,-0.97663 h -2.66594 v 8.47293 h 2.92989 q 2.79792,0 4.03851,-1.02942 1.26698,-1.02942 1.26698,-3.35222 z m 1.37256,15.30935 q 0,-2.9035 -1.66291,-4.01211 -1.63652,-1.1086 -4.38164,-1.1086 h -3.56339 v 9.87189 h 3.19385 q 1.68931,0 3.14106,-0.34314 1.47814,-0.36954 2.37559,-1.39896 0.89744,-1.02942 0.89744,-3.00908 z m 40.09469,-14.41191 q 0,3.93292 -2.13803,6.3877 -2.13803,2.42838 -5.1999,3.64257 l 9.58154,15.44133 h -9.79271 l -7.91863,-13.98958 h -2.45477 v 13.98958 h -8.6577 v -36.58408 h 11.50841 q 7.4699,0 11.27085,2.71873 3.80094,2.71873 3.80094,8.39375 z m -8.92166,0 q 0,-2.63954 -1.55733,-3.82734 -1.53093,-1.21419 -4.56641,-1.21419 h -2.8771 v 10.58457 h 3.22024 q 2.82431,0 4.30246,-1.31977 1.47814,-1.31977 1.47814,-4.22327 z m 32.07048,17.57936 h -10.71655 l -1.92686,7.89224 h -9.05364 l 11.19167,-36.58408 h 10.50538 l 11.19166,36.58408 h -9.26479 z m -9.34399,-6.28211 h 7.91864 l -3.95932,-16.1804 z m 49.8874,3.4842 q 0,3.40501 -1.79489,6.01816 -1.76849,2.61314 -5.09432,4.09129 -3.32582,1.47814 -7.99782,1.47814 -5.1735,0 -8.68409,-1.50454 -3.4842,-1.53093 -5.7806,-3.77454 l 4.38164,-4.85676 q 2.03245,1.76849 4.48722,2.74512 2.45478,0.95024 5.38467,0.95024 2.71873,0 4.40804,-1.1614 1.68931,-1.1878 1.68931,-3.32583 0,-2.00605 -1.42536,-3.14105 -1.39895,-1.13501 -5.22629,-2.29641 -6.41409,-1.95326 -9.13282,-4.5928 -2.69234,-2.66594 -2.69234,-6.83642 0,-3.35222 1.84768,-5.72781 1.87408,-2.37559 5.01514,-3.61617 3.14105,-1.26699 6.9156,-1.26699 4.24966,0 7.4963,1.24059 3.24664,1.21419 5.62223,3.4842 l -4.09129,4.69838 q -1.84768,-1.55733 -3.98571,-2.2964 -2.13803,-0.76547 -4.35525,-0.76547 -2.48117,0 -3.98571,0.92384 -1.50454,0.89745 -1.50454,2.66594 0,1.1614 0.65989,1.95327 0.65988,0.79186 2.2964,1.50454 1.63652,0.68628 4.54001,1.61012 3.45781,1.05581 5.91258,2.53396 2.48117,1.45175 3.77455,3.66896 1.31977,2.21722 1.31977,5.59584 z m 29.40454,-25.89393 v 6.33491 h -7.5491 v 23.88787 h 7.5491 v 6.3613 h -23.75589 v -6.3613 h 7.54909 v -23.88787 h -7.54909 v -6.33491 z m 8.86889,36.58408 v -36.58408 h 8.6577 v 29.74766 h 15.86366 l -0.89745,6.83642 z"
         id="path15" />
    </g>
  </g>
</svg>
